<svg id="Слой_1" data-name="Слой 1" xmlns="http://www.w3.org/2000/svg" xmlns:xlink="http://www.w3.org/1999/xlink" viewBox="0 0 3035.71 1347.1"><defs><style>.cls-1{fill:url(#linear-gradient);}.cls-2{fill:url(#linear-gradient-2);}.cls-3{fill:url(#linear-gradient-3);}.cls-4{fill:url(#linear-gradient-4);}.cls-5{fill:url(#linear-gradient-5);}.cls-6{fill:url(#linear-gradient-6);}.cls-7{fill:url(#linear-gradient-7);}.cls-8{fill:url(#linear-gradient-8);}.cls-9{fill:url(#linear-gradient-9);}.cls-10{fill:url(#linear-gradient-10);}.cls-11{fill:url(#linear-gradient-11);}.cls-12{fill:url(#linear-gradient-12);}.cls-13{fill:url(#linear-gradient-13);}.cls-14{fill:url(#linear-gradient-14);}.cls-15{fill:url(#linear-gradient-15);}.cls-16{fill:url(#linear-gradient-16);}.cls-17{fill:url(#linear-gradient-17);}.cls-18{fill:url(#linear-gradient-18);}.cls-19{fill:url(#linear-gradient-19);}.cls-20{fill:url(#linear-gradient-20);}.cls-21{fill:url(#linear-gradient-21);}.cls-22{fill:url(#linear-gradient-22);}.cls-23{fill:url(#linear-gradient-23);}.cls-24{fill:url(#linear-gradient-24);}.cls-25{fill:url(#linear-gradient-25);}.cls-26{fill:url(#linear-gradient-26);}.cls-27{fill:url(#linear-gradient-27);}.cls-28{fill:url(#linear-gradient-28);}.cls-29{fill:url(#linear-gradient-29);}.cls-30{fill:url(#linear-gradient-30);}.cls-31{fill:url(#linear-gradient-31);}.cls-32{fill:url(#linear-gradient-32);}.cls-33{fill:url(#linear-gradient-33);}.cls-34{fill:url(#linear-gradient-34);}.cls-35{fill:#668b43;}.cls-36{fill:url(#linear-gradient-35);}.cls-37{fill:url(#linear-gradient-36);}.cls-38{fill:url(#linear-gradient-37);}.cls-39{fill:url(#linear-gradient-38);}.cls-40{fill:#fafafa;}.cls-41{fill:url(#linear-gradient-39);}.cls-42{fill:url(#linear-gradient-40);}.cls-43{fill:url(#linear-gradient-41);}.cls-44{fill:url(#linear-gradient-42);}.cls-45{fill:url(#linear-gradient-43);}.cls-46{fill:url(#linear-gradient-44);}.cls-47{fill:url(#linear-gradient-45);}.cls-48{fill:url(#linear-gradient-46);}.cls-49{fill:#665757;}.cls-50{fill:url(#linear-gradient-47);}.cls-51{fill:#add14d;}.cls-52{fill:#877373;}.cls-53{fill:#eea886;}.cls-54{fill:#cf8c6c;}.cls-55{fill:#8a664d;}.cls-56{fill:#4a3f3f;}.cls-57{fill:#244057;}.cls-58{fill:#81807e;}.cls-59{fill:#ffbf55;}.cls-60{fill:#ab8039;}.cls-61{fill:#a77860;}.cls-62{fill:#cfc147;}.cls-63{fill:#639c38;}.cls-64{fill:#db9c7c;}.cls-65{fill:#292c47;}.cls-66{fill:#202338;}.cls-67{fill:#538742;}.cls-68{fill:#eea987;}.cls-69{fill:#665249;}.cls-70{fill:#2a3e4f;}.cls-71{fill:#face87;}.cls-72{fill:url(#linear-gradient-48);}.cls-73{fill:#959c4d;}.cls-74{fill:#cf433e;}.cls-75{fill:#9ccc9b;}.cls-76{fill:#ca595b;}.cls-77{fill:#ec686b;}.cls-78{fill:#9a6fa0;}.cls-79{fill:#82c07e;}.cls-80{fill:url(#linear-gradient-49);}.cls-81{fill:#f0b24e;}.cls-82{fill:url(#linear-gradient-50);}.cls-83{fill:#3c6b4a;}.cls-84{fill:#323657;}.cls-85{fill:#1b384f;}.cls-86{fill:#ededed;}</style><linearGradient id="linear-gradient" x1="2725.94" y1="2613.18" x2="1959.79" y2="632.74" gradientUnits="userSpaceOnUse"><stop offset="0.01" stop-color="#b0bd24"/><stop offset="1" stop-color="#467550"/></linearGradient><linearGradient id="linear-gradient-2" x1="1961.04" y1="908.51" x2="1961.04" y2="648.76" gradientUnits="userSpaceOnUse"><stop offset="0" stop-color="#9e9a34"/><stop offset="1" stop-color="#3d6a6e"/></linearGradient><linearGradient id="linear-gradient-3" x1="1816.73" y1="1561.41" x2="1816.73" y2="1301.66" xlink:href="#linear-gradient-2"/><linearGradient id="linear-gradient-4" x1="2191.45" y1="1561.41" x2="2191.45" y2="1301.66" gradientTransform="translate(3.58 -5.54) rotate(0.14)" xlink:href="#linear-gradient-2"/><linearGradient id="linear-gradient-5" x1="2191.47" y1="908.51" x2="2191.47" y2="648.76" xlink:href="#linear-gradient-2"/><linearGradient id="linear-gradient-6" x1="2044.27" y1="908.51" x2="2044.27" y2="648.76" xlink:href="#linear-gradient-2"/><linearGradient id="linear-gradient-7" x1="2044.27" y1="908.51" x2="2044.27" y2="648.76" xlink:href="#linear-gradient-2"/><linearGradient id="linear-gradient-8" x1="2123.88" y1="908.51" x2="2123.88" y2="648.76" xlink:href="#linear-gradient-2"/><linearGradient id="linear-gradient-9" x1="2123.88" y1="908.51" x2="2123.88" y2="648.76" xlink:href="#linear-gradient-2"/><linearGradient id="linear-gradient-10" x1="2293.8" y1="908.51" x2="2293.8" y2="648.76" xlink:href="#linear-gradient-2"/><linearGradient id="linear-gradient-11" x1="2293.81" y1="908.51" x2="2293.81" y2="648.76" xlink:href="#linear-gradient-2"/><linearGradient id="linear-gradient-12" x1="2359.75" y1="1561.41" x2="2359.75" y2="1301.66" gradientTransform="translate(7.4 -12.18) rotate(0.3)" xlink:href="#linear-gradient-2"/><linearGradient id="linear-gradient-13" x1="2359.65" y1="908.51" x2="2359.65" y2="648.76" xlink:href="#linear-gradient-2"/><linearGradient id="linear-gradient-14" x1="2532.48" y1="892.84" x2="2532.48" y2="681.81" xlink:href="#linear-gradient-2"/><linearGradient id="linear-gradient-15" x1="2388.16" y1="1545.74" x2="2388.16" y2="1334.71" xlink:href="#linear-gradient-2"/><linearGradient id="linear-gradient-16" x1="2762.87" y1="892.84" x2="2762.87" y2="681.81" xlink:href="#linear-gradient-2"/><linearGradient id="linear-gradient-17" x1="2762.9" y1="892.84" x2="2762.9" y2="681.81" xlink:href="#linear-gradient-2"/><linearGradient id="linear-gradient-18" x1="2615.7" y1="892.84" x2="2615.7" y2="681.81" xlink:href="#linear-gradient-2"/><linearGradient id="linear-gradient-19" x1="2615.71" y1="892.84" x2="2615.71" y2="681.81" xlink:href="#linear-gradient-2"/><linearGradient id="linear-gradient-20" x1="2695.31" y1="892.84" x2="2695.31" y2="681.81" xlink:href="#linear-gradient-2"/><linearGradient id="linear-gradient-21" x1="2695.32" y1="892.84" x2="2695.32" y2="681.81" xlink:href="#linear-gradient-2"/><linearGradient id="linear-gradient-22" x1="2865.24" y1="892.84" x2="2865.24" y2="681.81" xlink:href="#linear-gradient-2"/><linearGradient id="linear-gradient-23" x1="2865.24" y1="892.84" x2="2865.24" y2="681.81" xlink:href="#linear-gradient-2"/><linearGradient id="linear-gradient-24" x1="2931.17" y1="892.84" x2="2931.17" y2="681.81" xlink:href="#linear-gradient-2"/><linearGradient id="linear-gradient-25" x1="2931.09" y1="892.84" x2="2931.09" y2="681.81" xlink:href="#linear-gradient-2"/><linearGradient id="linear-gradient-26" x1="1522.34" y1="1227.44" x2="1497.8" y2="473.81" xlink:href="#linear-gradient"/><linearGradient id="linear-gradient-27" x1="1587.43" y1="803.45" x2="1397.28" y2="1873.04" xlink:href="#linear-gradient"/><linearGradient id="linear-gradient-28" x1="2103.36" y1="1001.52" x2="2103.36" y2="1249.7" xlink:href="#linear-gradient"/><linearGradient id="linear-gradient-29" x1="1051.68" y1="1066.15" x2="1051.68" y2="1282.39" gradientUnits="userSpaceOnUse"><stop offset="0" stop-color="#6b9e34"/><stop offset="1" stop-color="#1f4a6e"/></linearGradient><linearGradient id="linear-gradient-30" x1="2097.73" y1="809.74" x2="2083.98" y2="984.5" xlink:href="#linear-gradient"/><linearGradient id="linear-gradient-31" x1="623.05" y1="1522.72" x2="-64.19" y2="1699.44" xlink:href="#linear-gradient"/><linearGradient id="linear-gradient-32" x1="1090.6" y1="1210.68" x2="725.38" y2="1831.16" xlink:href="#linear-gradient-2"/><linearGradient id="linear-gradient-33" x1="2437.86" y1="1094.65" x2="246.56" y2="1293.85" xlink:href="#linear-gradient"/><linearGradient id="linear-gradient-34" x1="3079.28" y1="1562.78" x2="2346.77" y2="1549.92" xlink:href="#linear-gradient-2"/><linearGradient id="linear-gradient-35" x1="2400.45" y1="1998.39" x2="2789.68" y2="2688.73" xlink:href="#linear-gradient"/><linearGradient id="linear-gradient-36" x1="1930.74" y1="1875.81" x2="1266.1" y2="2202.63" xlink:href="#linear-gradient"/><linearGradient id="linear-gradient-37" x1="2459.35" y1="1671.59" x2="3146.03" y2="2721.79" xlink:href="#linear-gradient"/><linearGradient id="linear-gradient-38" x1="2862.36" y1="2040.97" x2="3031.27" y2="1299.22" xlink:href="#linear-gradient"/><linearGradient id="linear-gradient-39" x1="3014.12" y1="703.74" x2="3238.37" y2="703.74" gradientTransform="matrix(0.84, 0.3, -0.23, 0.66, -1552.03, 31.48)" gradientUnits="userSpaceOnUse"><stop offset="0" stop-color="#3076a1"/><stop offset="1" stop-color="#639c38"/></linearGradient><linearGradient id="linear-gradient-40" x1="3095.99" y1="760.58" x2="3451.37" y2="760.58" xlink:href="#linear-gradient-39"/><linearGradient id="linear-gradient-41" x1="2913.21" y1="764.19" x2="3140.8" y2="764.19" xlink:href="#linear-gradient-39"/><linearGradient id="linear-gradient-42" x1="1251.03" y1="3138.63" x2="1290.42" y2="2913.33" gradientTransform="matrix(0.87, 0.06, 0.06, 0.72, -323.74, -668.29)" xlink:href="#linear-gradient-39"/><linearGradient id="linear-gradient-43" x1="2942.02" y1="1025.38" x2="3166.26" y2="1025.38" xlink:href="#linear-gradient-39"/><linearGradient id="linear-gradient-44" x1="3023.89" y1="1082.23" x2="3379.27" y2="1082.23" xlink:href="#linear-gradient-39"/><linearGradient id="linear-gradient-45" x1="2841.11" y1="1085.84" x2="3068.7" y2="1085.84" xlink:href="#linear-gradient-39"/><linearGradient id="linear-gradient-46" x1="1075.65" y1="3417.72" x2="1115.03" y2="3192.42" gradientTransform="matrix(0.87, 0.06, 0.06, 0.72, -323.74, -668.29)" xlink:href="#linear-gradient-39"/><linearGradient id="linear-gradient-47" x1="-183.65" y1="1992.71" x2="1270.62" y2="1624.76" gradientTransform="translate(6.56 -6.7) rotate(-0.1)" xlink:href="#linear-gradient-39"/><linearGradient id="linear-gradient-48" x1="-8816.46" y1="1966.33" x2="-8787.36" y2="1966.33" gradientTransform="matrix(-0.97, -0.23, -0.23, 0.97, -6906.69, -2774.3)" gradientUnits="userSpaceOnUse"><stop offset="0" stop-color="#eb4747"/><stop offset="1" stop-color="#eb7947"/></linearGradient><linearGradient id="linear-gradient-49" x1="-2354.56" y1="1303.28" x2="-2386.3" y2="1383.06" gradientTransform="matrix(-1, 0, 0, 1, -982.33, -4.99)" gradientUnits="userSpaceOnUse"><stop offset="0" stop-color="#face87"/><stop offset="1" stop-color="#faba52"/></linearGradient><linearGradient id="linear-gradient-50" x1="377.29" y1="779.47" x2="581.14" y2="779.47" gradientTransform="translate(6.56 -6.7) rotate(-0.1)" gradientUnits="userSpaceOnUse"><stop offset="0" stop-color="#4f8d62"/><stop offset="1" stop-color="#639c38"/></linearGradient></defs><title>1354</title><path class="cls-1" d="M1263.15,1479s84.66-176.25,312-128.45,274.39-109.45,408.83-226.29S2599.93,488.55,3035.72,766.9v749.66Z" transform="translate(-0.01 -652.9)"/><polygon class="cls-2" points="2021.81 791.2 1987.08 715.31 1997.27 715.41 1979.59 676.78 1988.81 676.87 1962.3 618.95 1934.65 676.33 1943.65 676.42 1925.21 714.69 1936.51 714.8 1900.27 789.99 1953.18 790.51 1953.22 824.42 1968.94 824.4 1968.9 790.67 2021.81 791.2"/><path class="cls-3" d="M1889.44,1466.3s2.74-18.69-25.78-16.12c-.8.07-1.56.16-2.3.25l0-6.76,67.06.24-37.79-64.26,22,.08-17.33-29.44,17.43.06-42.38-72,15.16,0-32.39-55.07-32.79,54.84,15.16.06-42.89,71.74,17.42.06-17.53,29.33,22,.07-38.25,64,70.82.25,0,11c-9.35,4.85-9.88,10.18-30.7-1.45-28.9-16.14-37.87,1.2-37.87,1.2s-14.9-10.94-24.4,1.64c-3.36,4.44-8.92,6.18-14.71,7.36l.08-20.82a39.76,39.76,0,0,0,5.43-1.08c36.09-9.7,13.26-41.47,12.22-55.68s21.91-18,16.55-46.38-22.87-21.39-21.71-40-3.44-39.81-21.74-31.22c-10.4,4.88-11.53,13.62-22,38.17s11.9,32.28.85,66.11c-9.53,29.2-2.82,66.58,22.39,70l-.08,22.32c-7.62,1.52-14,3.83-14,12.39l186.79.67S1905.17,1466.8,1889.44,1466.3Z" transform="translate(-0.01 -652.9)"/><rect class="cls-4" x="2184.49" y="1343.77" width="13.91" height="133.58" transform="translate(-3.57 -647.35) rotate(-0.14)"/><polygon class="cls-5" points="2238.73 757.11 2246.4 757.09 2213.54 646.79 2220.59 646.77 2190.91 547.13 2161.73 646.92 2168.78 646.9 2136.47 757.37 2144.14 757.35 2136.54 783.34 2145.27 783.32 2139.6 802.7 2191.55 802.57 2243.5 802.43 2237.73 783.09 2246.46 783.07 2238.73 757.11"/><rect class="cls-6" x="2035.96" y="664.86" width="16.62" height="159.57"/><polygon class="cls-7" points="2100.76 744.11 2109.92 744.11 2070.97 612.26 2079.39 612.25 2044.2 493.14 2009.07 612.27 2017.49 612.27 1978.61 744.14 1987.77 744.14 1978.62 775.17 1989.04 775.17 1982.22 798.3 2044.28 798.28 2106.34 798.26 2099.5 775.14 2109.93 775.14 2100.76 744.11"/><rect class="cls-8" x="2117.91" y="710.44" width="11.93" height="114.54"/><polygon class="cls-9" points="2171.01 771.08 2147.04 689.96 2154.09 689.95 2123.84 587.54 2093.63 689.97 2100.67 689.97 2076.75 771.1 2083.79 771.1 2076.75 794.97 2123.88 794.96 2171.01 794.95 2163.97 771.08 2171.01 771.08"/><rect class="cls-10" x="2285.85" y="671.27" width="15.9" height="152.67"/><polygon class="cls-11" points="2356.62 759.51 2328.95 665.83 2335.09 665.83 2293.75 525.88 2252.47 665.85 2258.62 665.85 2230.99 759.54 2258.55 759.54 2252.5 780.03 2293.81 780.02 2335.12 780.01 2329.07 759.52 2356.62 759.51"/><rect class="cls-12" x="2354.46" y="1373.53" width="10.58" height="101.54" transform="translate(-7.35 -640.68) rotate(-0.3)"/><polygon class="cls-13" points="2418.74 727.55 2358.68 568.07 2300.28 728.17 2321.12 728.06 2300.57 784.4 2359.8 784.09 2419.03 783.79 2397.9 727.66 2418.74 727.55"/><polygon class="cls-14" points="2593.25 797.54 2558.52 735.88 2568.7 735.96 2551.02 704.57 2560.24 704.65 2533.74 657.59 2506.08 704.21 2515.09 704.28 2496.64 735.38 2507.94 735.47 2471.7 796.55 2524.61 796.98 2524.66 824.53 2540.38 824.51 2540.34 797.11 2593.25 797.54"/><path class="cls-15" d="M2460.87,1468.48s2.74-15.19-25.78-13.1l-2.29.2,0-5.49,67.07.19-37.8-52.2,22,.06-17.32-23.92,17.43,0-42.39-58.53,15.17,0-32.4-44.75-32.79,44.56,15.17,0-42.9,58.29,17.43,0L2364,1397.8l22,.06-38.26,52,70.82.21,0,8.9c-9.34,3.94-9.87,8.27-30.69-1.18-28.9-13.11-37.87,1-37.87,1s-14.91-8.89-24.41,1.33c-3.35,3.61-8.91,5-14.7,6l.07-16.92a48.82,48.82,0,0,0,5.43-.87c36.1-7.89,13.26-33.7,12.22-45.24s21.92-14.59,16.56-37.68-22.87-17.38-21.71-32.47-3.44-32.34-21.75-25.36c-10.4,4-11.52,11.06-22,31s11.91,26.23.86,53.72c-9.53,23.71-2.82,54.09,22.39,56.91l-.08,18.13c-7.62,1.23-14,3.11-14,10.07l186.79.54S2476.61,1468.88,2460.87,1468.48Z" transform="translate(-0.01 -652.9)"/><polygon class="cls-16" points="2770 824.53 2756.08 824.56 2755.75 716.04 2769.66 716.01 2770 824.53"/><polygon class="cls-17" points="2810.17 769.84 2817.83 769.83 2784.98 680.21 2792.03 680.2 2762.35 599.24 2733.16 680.32 2740.21 680.3 2707.91 770.05 2715.58 770.03 2707.98 791.15 2716.7 791.13 2711.04 806.88 2762.99 806.77 2814.93 806.66 2809.17 790.95 2817.9 790.93 2810.17 769.84"/><rect class="cls-18" x="2607.39" y="694.89" width="16.62" height="129.64"/><polygon class="cls-19" points="2672.2 759.28 2681.36 759.28 2642.4 652.16 2650.82 652.15 2615.64 555.38 2580.51 652.17 2588.93 652.17 2550.05 759.31 2559.2 759.3 2550.06 784.51 2560.48 784.51 2553.66 803.3 2615.72 803.29 2677.77 803.28 2670.94 784.49 2681.36 784.49 2672.2 759.28"/><rect class="cls-20" x="2689.35" y="731.93" width="11.93" height="93.06"/><polygon class="cls-21" points="2742.44 781.19 2718.48 715.28 2725.52 715.28 2695.27 632.07 2665.07 715.29 2672.11 715.29 2648.18 781.21 2655.23 781.21 2648.19 800.6 2695.32 800.59 2742.45 800.58 2735.4 781.19 2742.44 781.19"/><rect class="cls-22" x="2857.29" y="700.1" width="15.9" height="124.04"/><polygon class="cls-23" points="2928.06 771.79 2900.39 695.68 2906.53 695.68 2865.18 581.98 2823.91 695.7 2830.05 695.7 2802.43 771.82 2829.98 771.81 2823.94 788.47 2865.25 788.46 2906.56 788.45 2900.5 771.8 2928.06 771.79"/><polygon class="cls-24" points="2936.72 822.68 2926.15 822.72 2925.62 740.23 2936.2 740.18 2936.72 822.68"/><polygon class="cls-25" points="2990.18 745.83 2930.11 616.25 2871.71 746.33 2892.56 746.24 2872.01 792.01 2931.24 791.76 2990.47 791.51 2969.33 745.91 2990.18 745.83"/><rect class="cls-26" y="853.98" width="3035.71" height="471.21"/><rect class="cls-27" x="0.01" y="1042.46" width="3035.69" height="304.64"/><polygon class="cls-28" points="3035.7 946.54 1171.01 1042.46 3035.7 1089.58 3035.7 946.54"/><polygon class="cls-29" points="2103.35 1066.02 0 1142.88 0 1018.25 2103.35 1066.02"/><polygon class="cls-30" points="3035.7 871.92 1151.38 853.96 3035.7 793.38 3035.7 871.92"/><path class="cls-31" d="M1984,1480.09,0,1375.59v131.27S1155.47,1541.4,1984,1480.09Z" transform="translate(-0.01 -652.9)"/><path class="cls-32" d="M1681.09,1695.36H0V1575.62c18.29-30,58.87-52.12,142.13-45.62,77.2,6.07,114.65-4.69,137.68-23.12,42.58-34,35.93-94.26,140.27-123.21,129.17-35.88,94.7,55.93,305,116.17,9.44,2.69,18.33,5,26.79,7,68.94,16.43,107.51,11.15,134.26,0,43.31-18.09,55.68-51.48,116-32.86,33.88,10.47,56.71,21.66,73.33,32.86,67.91,45.47,31.88,90.25,221.24,83.36C1532.31,1581.63,1637.43,1632.63,1681.09,1695.36Z" transform="translate(-0.01 -652.9)"/><polygon class="cls-33" points="2093.54 1209.65 790.09 1209.65 252.07 1209.65 1222.07 1248.92 2093.54 1209.65"/><path class="cls-34" d="M2518,1626.07s-49.7-75,39.31-62,2.62-70.71,89-81.19,128.28,102.48,185.88,52.55,91.63-70.87,117.81-10.66,85.72-18,85.72-18v119.21Z" transform="translate(-0.01 -652.9)"/><path class="cls-35" d="M913,1983.9s37.94-32,84.19-31.62,73.91,31.62,73.91,31.62Z" transform="translate(-0.01 -652.9)"/><path class="cls-36" d="M3035.73,1599.45V2000H1541.14s81.91-110.13,265.75-187c119-49.8,280.84-85.66,490.86-68.68,220.89,17.88,385.28-3.79,502.1-35.38C2965.62,1664.14,3035.73,1599.45,3035.73,1599.45Z" transform="translate(-0.01 -652.9)"/><path class="cls-37" d="M1933.34,2000h-392.2s81.91-110.13,265.75-187A254.65,254.65,0,0,1,1933.34,2000Z" transform="translate(-0.01 -652.9)"/><path class="cls-38" d="M2900.52,2000H2435.08c29.27-100.89,122.37-174.64,232.7-174.64S2871.25,1899.11,2900.52,2000Z" transform="translate(-0.01 -652.9)"/><path class="cls-39" d="M3035.73,1599.45v286.76c-100.75-24.42-185.55-89.69-235.88-177.29C2965.62,1664.14,3035.73,1599.45,3035.73,1599.45Z" transform="translate(-0.01 -652.9)"/><path class="cls-40" d="M0,1100.86s724.1-113.31,1131.06,342.9S2625.49,1918.68,2794.32,2000H0Z" transform="translate(-0.01 -652.9)"/><path class="cls-41" d="M889.14,1599.44s28.63-12.59,36.75-40,13.32-65.17,35.51-74.9,68.82-35.67,70.18-68.16-68.83-71-52.66-79.1,45.32-29.63,16.64-47.21-43.92-20.67-51.51-44.46-35.27-36-41.37.22-23.24,44.47-19.51,74.67,21.08,58.59-27.33,65.32-30.8,39.45-20,63.3,13.53,117.92,16.76,134.27S869.35,1610.45,889.14,1599.44Z" transform="translate(-0.01 -652.9)"/><path class="cls-42" d="M876.93,1615.85s65.74-24.82,86.23-20.36,58.5,15.29,73.5-1.85,27.11-74.94,75.26-68.48,65.91-5.05,63.13-33.81,75.25-72.37,61.18-88.19-120.41,13.31-152,24.37-62.22-14.19-79.67,16.49-75.82,56.91-95.24,51.64-35.08-8-39.84,21.13-24.38,47-29.55,65.07S827.89,1613.05,876.93,1615.85Z" transform="translate(-0.01 -652.9)"/><path class="cls-43" d="M828.2,1280.34c-2.33-17.8-33-26-37.82-3.73s6.43,51.89-35.67,77.86,22.25,56.66,38,87.83,13,65.4,26.12,92.44,10.06,79.57,32.82,67.58,15.4-40.6,28.52-72,56.95-38.74,27.54-72.31-64.09-52.91-35.56-95.2C884.77,1344.16,835.46,1335.71,828.2,1280.34Z" transform="translate(-0.01 -652.9)"/><path class="cls-44" d="M837,1598s22.73-21.27,11.11-67-33.59-47,35.9-54.58,42-118.05,96.65-111.61,149.77-123.26,181.73-91.21-44.43,85.17-24.48,116.21,14,59.52-50.51,61.51,3,120.23-83,118.74S905,1676.85,837,1598Z" transform="translate(-0.01 -652.9)"/><path class="cls-45" d="M753.91,1789s28.63-12.59,36.75-40,13.31-65.17,35.51-74.89S895,1638.44,896.35,1606s-68.83-71-52.66-79.11,45.32-29.63,16.64-47.21-43.92-20.66-51.51-44.46-35.27-36-41.37.22-23.24,44.47-19.52,74.67,21.09,58.59-27.32,65.33-30.8,39.45-20,63.29,13.53,117.92,16.76,134.28S734.12,1800,753.91,1789Z" transform="translate(-0.01 -652.9)"/><path class="cls-46" d="M741.7,1805.43s65.74-24.81,86.22-20.35,58.5,15.28,73.51-1.86,27.11-74.94,75.26-68.48,65.9-5,63.13-33.81,75.24-72.36,61.18-88.19-120.41,13.31-152,24.37-62.22-14.19-79.68,16.49-75.81,56.91-95.23,51.64-35.09-8-39.84,21.13-24.38,47-29.55,65.07S692.66,1802.63,741.7,1805.43Z" transform="translate(-0.01 -652.9)"/><path class="cls-47" d="M693,1469.92c-2.34-17.8-33-26.05-37.82-3.72s6.43,51.88-35.68,77.85,22.26,56.66,38,87.84,13,65.4,26.12,92.43,10.06,79.57,32.82,67.58,15.39-40.59,28.51-72,57-38.74,27.54-72.32-64.08-52.9-35.56-95.2C749.54,1533.75,700.23,1525.3,693,1469.92Z" transform="translate(-0.01 -652.9)"/><path class="cls-48" d="M701.74,1787.57s22.73-21.27,11.11-67-33.59-47.06,35.9-54.58,42-118.06,96.65-111.62,149.77-123.26,181.73-91.21-44.43,85.17-24.48,116.21,14.05,59.52-50.51,61.51,3,120.23-83,118.74S769.77,1866.44,701.74,1787.57Z" transform="translate(-0.01 -652.9)"/><path class="cls-49" d="M1442.81,1941.35c-62.57-16.27-186.5-50.16-302.15-72.25-201-38.41-448.59-52.09-574.48-34.22-198.31,28.15-403.07-104.46-240-188,80.58-41.31,514.38-112.73,836.23-132.71h.09c172.91-10.71,313.5-6.62,349.64,25,145,126.72,223.26,57.36,488.07,224.2S1640,1992.67,1442.81,1941.35Z" transform="translate(-0.01 -652.9)"/><path class="cls-50" d="M1184.94,1574.92c-66,59.86-207.47,60.1-104.48,132.06s127.51,140.87,60.23,162.12h0c-201-38.41-609.87-42.59-735.76-24.73-198.32,28.16-241.79-113.95-78.73-197.52,80.58-41.31,514.38-112.73,836.23-132.71h.09C1165.57,1514.19,1249.75,1516.15,1184.94,1574.92Z" transform="translate(-0.01 -652.9)"/><path class="cls-51" d="M1275.41,1524.24c6.86,1.3,33.31,4,45.52-28.6a17.59,17.59,0,0,1-18.17,3.07c-7.8-2.91-19.37,1.81-25.26,11.38,1.88-20.72-2-34.94-2.75-53.83-.12-2.87-.13-5.47-.08-7.88,4.7-.86,33.25-7.61,31.49-44.45a17.61,17.61,0,0,1-15.48,10c-9.26.46-19.09,11.44-19,24.3a44.23,44.23,0,0,0-2.67,15.65c-.13,9.16,2.23,18.56,3.66,28.9a38.41,38.41,0,0,0-5-8.13c-11.83-14.56-24.74-16.34-27.17-20.08,0,0-4.56,16.61,13.86,27.77,11.29,6.84,16.76,13.33,19.33,17.35a71.82,71.82,0,0,1-5,23.79c-11.39,29.1,4.33,59.58,4.33,59.58l10.06-6.22s-15.28-17.61-8.29-49.08C1275,1526.51,1275.18,1525.44,1275.41,1524.24Z" transform="translate(-0.01 -652.9)"/><path class="cls-52" d="M1193.88,1598.11s75.45-84,166.5-.28Z" transform="translate(-0.01 -652.9)"/><path class="cls-51" d="M1355.28,1612.89c6.85,1.3,33.31,4,45.52-28.6a17.61,17.61,0,0,1-18.17,3.07c-7.8-2.91-19.37,1.81-25.27,11.38,1.89-20.72-1.95-34.94-2.74-53.83-.12-2.87-.13-5.48-.08-7.88,4.7-.86,33.25-7.61,31.48-44.45a17.59,17.59,0,0,1-15.47,10c-9.26.46-19.09,11.44-19,24.3a44.46,44.46,0,0,0-2.67,15.65c-.12,9.16,2.23,18.55,3.67,28.89a39.46,39.46,0,0,0-5-8.12c-11.83-14.56-24.74-16.34-27.17-20.08,0,0-4.56,16.61,13.86,27.77,11.28,6.84,16.75,13.33,19.32,17.35a72.09,72.09,0,0,1-5,23.79c-11.4,29.1,4.33,59.58,4.33,59.58l10.06-6.22s-15.29-17.61-8.3-49.08C1354.91,1615.16,1355,1614.09,1355.28,1612.89Z" transform="translate(-0.01 -652.9)"/><path class="cls-52" d="M1270,1682.19s75.46-84,166.51-.28Z" transform="translate(-0.01 -652.9)"/><path class="cls-51" d="M1500.88,1812.5c6.85,1.3,33.31,4,45.51-28.6a17.56,17.56,0,0,1-18.16,3.07c-7.8-2.9-19.37,1.81-25.27,11.38,1.89-20.72-2-34.93-2.74-53.83-.12-2.87-.13-5.47-.08-7.87,4.7-.86,33.25-7.61,31.48-44.45a17.57,17.57,0,0,1-15.47,10c-9.26.46-19.09,11.44-19,24.31a44.14,44.14,0,0,0-2.67,15.65c-.12,9.15,2.23,18.55,3.67,28.89a39.78,39.78,0,0,0-5-8.13c-11.83-14.56-24.74-16.34-27.18-20.08,0,0-4.56,16.61,13.87,27.78,11.28,6.84,16.75,13.32,19.32,17.35a71.76,71.76,0,0,1-5,23.78c-11.39,29.1,4.34,59.58,4.34,59.58l10.06-6.21s-15.29-17.61-8.3-49.09C1500.51,1814.78,1500.64,1813.7,1500.88,1812.5Z" transform="translate(-0.01 -652.9)"/><path class="cls-52" d="M1415.61,1881.8s75.46-84,166.5-.28Z" transform="translate(-0.01 -652.9)"/><path class="cls-51" d="M1702.45,1741.05c6.85,1.31,33.3,4,45.51-28.6a17.59,17.59,0,0,1-18.17,3.07c-7.8-2.9-19.37,1.81-25.26,11.39,1.89-20.72-2-34.94-2.75-53.84-.12-2.87-.13-5.47-.08-7.87,4.7-.86,33.26-7.61,31.49-44.45a17.59,17.59,0,0,1-15.48,10c-9.26.47-19.09,11.45-19,24.31a44.14,44.14,0,0,0-2.67,15.65c-.13,9.16,2.23,18.55,3.66,28.89a38.61,38.61,0,0,0-5-8.12c-11.83-14.56-24.74-16.34-27.17-20.08,0,0-4.56,16.61,13.86,27.77,11.29,6.84,16.76,13.33,19.33,17.35a71.76,71.76,0,0,1-5,23.78c-11.39,29.1,4.34,59.58,4.34,59.58l10-6.21s-15.28-17.61-8.29-49.08C1702.07,1743.33,1702.21,1742.25,1702.45,1741.05Z" transform="translate(-0.01 -652.9)"/><path class="cls-52" d="M1617.18,1810.36s75.45-84,166.5-.29Z" transform="translate(-0.01 -652.9)"/><path class="cls-53" d="M989.91,1095.45s19.05-8,22-9.07,11.53.86,21.18,4,21.28,11.7,21.75,13.39,1.72,3.17.23,7.41a17,17,0,0,1-5.08,7s.62,6.09-4.06,9.16a8.46,8.46,0,0,1-5.1,8.57s-.3,5.43-4.73,7c0,0-8.6-2-12-1.79s-21-5.16-37.09-12.89C987,1128.21,968.9,1120.39,989.91,1095.45Z" transform="translate(-0.01 -652.9)"/><path class="cls-54" d="M1016.59,1107.61s-7.25,7.42-10.34,8.47,8,21.62,8,21.62S1025.37,1116.66,1016.59,1107.61Z" transform="translate(-0.01 -652.9)"/><path class="cls-53" d="M983.14,1095.87s9,.77,14.85-.65-6.44,27-6.44,27-11.31-11.65-19.8-13.62S983.14,1095.87,983.14,1095.87Z" transform="translate(-0.01 -652.9)"/><rect class="cls-55" x="675.97" y="1314.26" width="603.94" height="12.32" transform="translate(-509.34 1366.04) rotate(-78.63)"/><path class="cls-56" d="M860.12,1579.25l-23.85,118.63c13.88,42.3,55,54.51,55,54.51s42.67,4.63,71.81-29L987,1604.74Z" transform="translate(-0.01 -652.9)"/><path class="cls-57" d="M861,1717.7s17.24,19.18,34.72,23.18,29.71,9.11,29.86,20.13-50.25,18.38-70.26,7.3c-29.87-16.54-32.89-11.54-36.22-19.82s3.5-30.45,3.71-33.11C823,1712.12,861,1717.7,861,1717.7Z" transform="translate(-0.01 -652.9)"/><path class="cls-57" d="M685.42,1723s12.69,18.7,29.63,23c16.71,4.22,27.54,12.31,28.38,23s-39.33,24.82-67.59,6c-18.58-12.33-25.49-11.62-29.24-19.47s1.3-29.8,1.52-32.44C648.4,1720,685.42,1723,685.42,1723Z" transform="translate(-0.01 -652.9)"/><path class="cls-53" d="M822.63,1169.73s17.73,126.73,25.19,173.91c8.73,55.16,10.31,85.57,12.76,114.12,3.09,35.92-3.68,240.25-1.54,250.75s-33.94-5.36-33.94-5.36-31.86-223.84-40.94-262.08c-8.46-35.61-39.88-188.92-47.53-179.18s-16.86,179-22.48,207.1-29.26,244.76-29.26,244.76-24,5.47-34.43-3.32c0,0-13.4-183.83-9.87-236.51,1.34-20.08-23.93-240.64,7.85-329.51C665.23,1097.45,822.63,1169.73,822.63,1169.73Z" transform="translate(-0.01 -652.9)"/><path class="cls-57" d="M822.63,1169.73s17.73,126.73,25.19,173.91c8.73,55.16,10.31,85.57,12.76,114.12,3.09,35.92,2.14,172.65,2.21,183.36C862.88,1653,811,1647,811,1647s-17.71-167.65-26.79-205.89c-8.46-35.61-39.88-188.92-47.53-179.18s-16.86,179-22.48,207.1-18,190-18,190-45.06,6.38-55.48-2.4c0,0-3.63-130-.1-182.7,1.34-20.08-23.93-240.64,7.85-329.51C665.23,1097.45,822.63,1169.73,822.63,1169.73Z" transform="translate(-0.01 -652.9)"/><path class="cls-58" d="M825.1,1703.15s24.06,9.13,33.7,2.64l3,12.76s-7.74,4.51-21.07,2.84-17.92-6-17.92-6Z" transform="translate(-0.01 -652.9)"/><path class="cls-58" d="M650.29,1708.11s27.66,10.22,35,2.12l1.27,14.31s-2.73,4.44-13.54,3.92-24.88-5.32-24.88-5.32Z" transform="translate(-0.01 -652.9)"/><path class="cls-59" d="M993.93,1093.75l-4.51,37.48c-117.5-57.45-132.91-84.57-137.25-90.08-3-3.8-16-24.57-22.4-40-.54-1.28-1-2.52-1.45-3.72l-5.66-17.66a0,0,0,0,0,0,0c-2.54,36-1.49,90.74-1.32,165l2.93,36.47c-39.91,23.77-187.16,15.42-187.16,15.42l3.32-88s2.75-30.9,2.86-57.66c0-3.06,0-6.07-.07-9,0,0-.12-4.45-.61-11.26h0c-1.06-14.79-3.87-40.65-11.05-55.87-10.19-21.59-43.93-33.15-45.86-33.79l-.08,0s-.24-1.47-.62-4c0-.33-.08-.5-.08-.5-1.76-11.84-6-44.12-3.26-61.13,5.37-21.09,18.2-25.89,21.78-27.92,37.41-21,82.56-36.83,82.56-36.83,11.51.65,45.86,3.81,56.91,4.84,0,0,68.1,25.92,88.08,47.52L890.66,1001Z" transform="translate(-0.01 -652.9)"/><path class="cls-53" d="M752.1,831.28s-22.91,12.57-66.45-8.86c0,0,3.11-43.37-4.38-72.15s57.92,40.42,57.92,40.42c-.73.48-1,3.31-.75,7.29.07,1.29.21,2.71.39,4.22.23,1.88.55,3.88.95,5.93.11.56.22,1.12.35,1.68C742.22,819.42,746.16,829.41,752.1,831.28Z" transform="translate(-0.01 -652.9)"/><path class="cls-59" d="M722.29,940.72s-45.33,27.63-55.2,31.56c-7.09,2.83-17.06-7.9-26.24-33.34,0,0-24.76-35.36-55.94-2.25,0,0,11.91,78.41,47,96.24,11.6,5.9,112.05-64.5,112.05-64.5S731.86,951.33,722.29,940.72Z" transform="translate(-0.01 -652.9)"/><path class="cls-59" d="M686.28,804.49s41.73,17.31,53.63,4.25l3.8,7,13.71,19s-58.68,16.13-73.28-2.58Z" transform="translate(-0.01 -652.9)"/><path class="cls-60" d="M829.77,1001.19c-.54-1.28-1-2.52-1.45-3.72l-5.66-17.66a0,0,0,0,0,0,0v0s-.77-9.76-2.27-22.32c0,0,0,0,0,0-1.77-14.69-4.53-33.21-8.24-44.47,0,0,6.15,8,11.2,26.24q1,3.75,2,8.11C828.28,960.79,830.38,978.54,829.77,1001.19Z" transform="translate(-0.01 -652.9)"/><path class="cls-60" d="M717.07,986.74c-32.65,38.35-73.79,64.37-73.79,64.37,0-3.06,0-6.07-.07-9,0,0-.12-4.45-.61-11.26l.18-.07c18.48-7.25,53.9-30.66,57.19-32.84C700.09,997.89,717,986.75,717.07,986.74Z" transform="translate(-0.01 -652.9)"/><path class="cls-61" d="M739.78,808.13c-29.48,3.57-42.59-25.06-42.59-25.06,19.65,24.08,41.44,18.79,41.95,18.66C739.37,803.61,739.38,806.08,739.78,808.13Z" transform="translate(-0.01 -652.9)"/><polygon class="cls-55" points="381.67 71.55 388.53 61.43 925.36 365.33 918.5 375.45 381.67 71.55"/><polygon class="cls-56" points="388.53 61.43 337.49 39.91 334.01 46.06 383.45 72.56 388.53 61.43"/><polygon class="cls-56" points="309.16 25.7 369.18 55.24 341.27 146.42 252.7 102.83 309.16 25.7"/><path class="cls-53" d="M781.34,930.48s-.87,4.37-2.18,6.09c0,0-2.62,3-4.36,5.18a20,20,0,0,0-1.27,1.76c-1.07,1.82-2.89,6.14-6.7,9.79s-24.25,15.15-24.25,15.15l-9.35-9.29-10-7.44s8.43-31.15,11.58-35a11.91,11.91,0,0,1,1-1c3-3,6.44-3.92,8.18-5.3.64-.5,7.37-5.06,9.7-4.38,3.23.93,5.1,2.9,5.78,5.1,0,0,6.26,2.12,8.61,5.89,0,0,5.83,1.77,7.43,7.3C775.47,924.34,781.18,926.79,781.34,930.48Z" transform="translate(-0.01 -652.9)"/><rect class="cls-62" x="1055.94" y="1316.07" width="136.47" height="234.01" transform="translate(-2.44 -650.99) rotate(-0.1)"/><path class="cls-62" d="M1192.27,1352.24s4.28,47.26,7.47,67.46,2.32,125.7.22,130.26l-154.57.26s-6.44-81.32-.18-106.73,10.6-87.46,10.6-87.46Z" transform="translate(-0.01 -652.9)"/><path class="cls-63" d="M1069.87,1413.83s-9.93,34.72-9.9,48.39,5.11,69.39,5.11,69.39l115.92-.2s-1.66-49.41-.11-66.77-8-51-8-51Z" transform="translate(-0.01 -652.9)"/><path class="cls-64" d="M1052.35,1103.05s-24.4-7.29-26.06-3.51,0,6.18,0,6.18l-11.41,1.56s-7,5.29.83,11.33c0,0-7,4.27,1.21,9.21,0,0-3.38,4.88,0,7.84s19.12,7.23,19.12,7.23,4.71-.24,5.2-6.68a9.41,9.41,0,0,0,5.21-8.62s4.71-2.43,4.41-9.06c0,0,8.31-6.5,3.9-14.57C1054.82,1104,1053.38,1103.35,1052.35,1103.05Z" transform="translate(-0.01 -652.9)"/><path class="cls-53" d="M1013.13,1086.88s12.62,12.09,16.61,21.72c.9,2.17,1.38,4.45-.3,6.11s-6.22,1.33-12-3.63-15.41-8.74-15.41-8.74S997.68,1095.52,1013.13,1086.88Z" transform="translate(-0.01 -652.9)"/><path class="cls-65" d="M1312.3,1723.76s-12.18,13.63-24.55,16.51-21,6.52-21.11,14.34,35.65,12.9,49.8,5c21.13-11.79,23.29-8.25,25.62-14.13s-2.85-21.59-2.7-23.46C1339.54,1719.71,1312.3,1723.76,1312.3,1723.76Z" transform="translate(-0.01 -652.9)"/><path class="cls-65" d="M1436.73,1727.1s-9,13.28-21,16.35c-11.82,3-19.48,8.79-20,16.39s27.93,17.49,47.91,4.12c13.14-8.79,18-8.3,20.68-13.87s-1.42-21.18-1.16-23C1463.48,1724.87,1436.73,1727.1,1436.73,1727.1Z" transform="translate(-0.01 -652.9)"/><path class="cls-66" d="M1337.7,1713.36s-17,6.53-23.88,2l-2.09,9.06s5.49,3.17,14.94,2,12.69-4.31,12.69-4.31Z" transform="translate(-0.01 -652.9)"/><path class="cls-66" d="M1461.58,1716.46s-19.57,7.31-24.78,1.58l-.86,10.15s1.94,3.14,9.6,2.74,17.62-3.83,17.62-3.83Z" transform="translate(-0.01 -652.9)"/><path class="cls-53" d="M1347.82,1335.05s-21.92,90.14-27.09,123.59c-6,39.11-7.1,60.67-8.77,80.91-2.1,25.46,3.18,170.24,1.7,177.69s24-3.88,24-3.88,22-158.71,28.38-185.83c5.9-25.25,27.8-134,33.25-127.09s12.37,126.81,16.43,146.72,21.32,173.38,21.32,173.38,17,3.81,24.39-2.44c0,0,9-130.31,6.43-167.63-1-14.22,16.37-170.59-6.36-233.49C1449.53,1283.74,1347.82,1335.05,1347.82,1335.05Z" transform="translate(-0.01 -652.9)"/><path class="cls-65" d="M1345.48,1315.79s-19.58,109.4-24.75,142.85c-6,39.11-7.1,60.67-8.77,80.91-2.1,25.46-7.34,169.58-7.36,177.17,0,8.43,39.76,3,39.76,3s15.37-165,21.72-192.17c5.9-25.25,27.8-134,33.25-127.09s12.37,126.81,16.43,146.72,13,179,13,179,32.1-.16,39.46-6.41c0,0,2.26-132-.36-169.28-1-14.22,16.37-170.59-6.36-233.49C1449.53,1283.74,1345.48,1315.79,1345.48,1315.79Z" transform="translate(-0.01 -652.9)"/><path class="cls-53" d="M1238.21,1158.9s-11.45-11.92-12.88-13.61-7.37-3.37-14.36-4.7-17,0-17.89.86-2.13,1.37-2.65,4.47a11.94,11.94,0,0,0,.75,6s-2.44,3.53-.61,7a6.33,6.33,0,0,0,.58,7s-2,3.4.2,5.85c0,0,5.33,2,8,3,2.26.78,14.75,2.66,27.25,3.37C1226.57,1178.13,1242.67,1181.32,1238.21,1158.9Z" transform="translate(-0.01 -652.9)"/><path class="cls-67" d="M1221.71,1179.7s50.82,18.54,60,21.4c7,2.19,16,8.69,32.31-1.18,7.59-4.59,17.65-13.94,27-23.58h0c2.16-2.22,4.27-4.46,6.31-6.66h0c10.61-11.45,19.13-21.85,20.09-23.5,1.94-3.34,40.29-31.09,13.57-49.68-6-4.18-29.08-14.19-42.18,0-11.51,12.52-16.79,36-19.57,41.3-3.28,6.27-17.55,32.83-17.55,32.83-.81,2-20.14-3.78-22.77-4.57C1271.21,1163.8,1233,1152,1233,1152Z" transform="translate(-0.01 -652.9)"/><path class="cls-68" d="M1421.89,1039.24l0,0a124,124,0,0,1-16.77,21.3c-21,21-63.35,16.4-56.11-47.54,1.37-12.11,4.08-21.74,7.49-29.4,12.14-27.28,33.06-29.49,33.06-29.49,15.13,1,41,8,47.33,28.61C1441.38,997.42,1434,1019.91,1421.89,1039.24Z" transform="translate(-0.01 -652.9)"/><path class="cls-69" d="M1421.89,1039.24l0,0s-2.24.31-8.11-16.41c-1.17-3.36-2.66-1.25-3.16-2.73l-11.84-6.38s14.83-19.06-.56-26.75c-15.69-7.84-41.72-3.37-41.72-3.37,12.14-27.28,33.06-29.49,33.06-29.49,15.13,1,41,8,47.33,28.61C1441.38,997.42,1434,1019.91,1421.89,1039.24Z" transform="translate(-0.01 -652.9)"/><path class="cls-68" d="M1408.11,1010.11c.92-4.31,9.41-8,13,1.21s-8.44,19.07-11.63,17S1406.58,1017.23,1408.11,1010.11Z" transform="translate(-0.01 -652.9)"/><path class="cls-67" d="M1435.7,1014.21s-36.58-32.57-84.41-28.44c0,0,9.94-57.95,61.79-41.44C1461.81,959.85,1438.22,1007.85,1435.7,1014.21Z" transform="translate(-0.01 -652.9)"/><path class="cls-67" d="M1411.55,998.51s-40.59,2.23-65.33-6.2,6.53-12.51,6.53-12.51S1374.74,975.75,1411.55,998.51Z" transform="translate(-0.01 -652.9)"/><path class="cls-67" d="M1381.39,1081.38s-30.6,6.34-34.57,9.86c-4.3,3.75-12.85,41.64-13.28,51.85s2.26,52.3,6.6,68.17,4.11,91.74,1.43,113.76c0,0,63.38,15.09,129.63,6.36,0,0-10.49-79.42-7.88-101.2,3.35-27.89,14.28-88.71,14.28-88.71s-.89-42.16-6.8-47.14-51.63-13-51.63-13Z" transform="translate(-0.01 -652.9)"/><path class="cls-53" d="M1374.55,1088.48s9.4,7,40.79-6.85c0,0-4.59-15.59,1.54-35.72s-39,19.53-39,19.53c.51.35.61,2.36.32,5.16,0,.19,0,.37-.06.56a52.77,52.77,0,0,1-1.25,6.86c-.07.3-.14.6-.22.9C1374.88,1085.65,1374.54,1082.61,1374.55,1088.48Z" transform="translate(-0.01 -652.9)"/><path class="cls-61" d="M1376.85,1078h0c22.51,2.85,34.75-21.42,35.11-22.14-15.37,22.49-33.86,15.28-33.86,15.28h0A52.77,52.77,0,0,1,1376.85,1078Z" transform="translate(-0.01 -652.9)"/><path class="cls-53" d="M1374.67,1082.84s-7.18,10.72,2.85,12.53,30.51-.46,41.65-14.06C1419.17,1081.31,1388.77,1078.72,1374.67,1082.84Z" transform="translate(-0.01 -652.9)"/><path class="cls-70" d="M1335.65,1181.71s-2.25-29.56-2.16-34.53a220.36,220.36,0,0,0-5.06,41.39Z" transform="translate(-0.01 -652.9)"/><path class="cls-53" d="M1224.79,1145.11s-12,3.19-17.73,7.79c-1.31,1-2.38,2.29-1.91,3.9s3.41,3,8.66,1.83,12.55-.15,12.55-.15S1231.42,1155.76,1224.79,1145.11Z" transform="translate(-0.01 -652.9)"/><path class="cls-71" d="M1308.54,1323c-.1-2.21-2-54.56,27.4-85.38,13.61-14.24,31.72-21.49,53.81-21.52s40.23,7.14,53.89,21.34c29.55,30.72,27.78,83.07,27.69,85.28l-.15,3.64-162.48.27Zm129.63-80.3c-12.17-12.65-28.45-19-48.4-19s-36.2,6.48-48.32,19.16c-23,24-25.23,64-25.36,76.2l147.68-.25C1463.61,1306.6,1461.24,1266.67,1438.17,1242.69Z" transform="translate(-0.01 -652.9)"/><path class="cls-53" d="M1283.37,1293.2s3.82.06,5.5-.72c0,0,3-1.67,5.13-2.73a15.31,15.31,0,0,1,1.72-.75c1.72-.57,5.67-1.31,9.41-3.85s17.1-17.61,17.1-17.61l-6.11-9.53-4.44-9.74s-27.66,1.46-31.42,3.41a10.2,10.2,0,0,0-1,.62c-3,2-4.45,4.7-5.93,5.91-.53.45-5.57,5.27-5.43,7.35a6.83,6.83,0,0,0,3.25,5.77s.64,5.63,3.38,8.29c0,0,.43,5.21,4.78,7.55C1279.27,1287.17,1280.3,1292.41,1283.37,1293.2Z" transform="translate(-0.01 -652.9)"/><path class="cls-67" d="M1461,1090.41c-7.61-1.18-30.77-1.77-38.61,32.35-3.57,15.53-6.74,33.18-7.13,39.49s-12.26,51.71-16.53,55.06c-5.4,4.24-33.65,13.19-36.28,14.38-9.07,4.13-52.44,15.31-52.44,15.31l3.25,33s95.29-23.16,105.64-28.77c6.82-3.69,16.79-10.16,25.42-28.3,9.52-20,30.8-62.7,31.09-66.76S1494.86,1095.68,1461,1090.41Z" transform="translate(-0.01 -652.9)"/><path class="cls-71" d="M1442.49,1247.65s-21.73-27.84-58.37-23.78l0-7.61s35.45-4.94,61.55,23.36Z" transform="translate(-0.01 -652.9)"/><path class="cls-72" d="M1219.28,1115.78s14.81.57,11.45,14.81-30,73.9-32.58,74.75c-1.93-1.92.91-67.2,4.27-81.43S1219.28,1115.78,1219.28,1115.78Z" transform="translate(-0.01 -652.9)"/><path class="cls-73" d="M1219.28,1115.78s-4.07-4.09-2.81-6.46,3.25,1.56,3.57-4.63-3.78-8.09,1.08-9.45,8.36-12.9,9.37-9.22-3.25,8.47-3.8,11.47,2.2,1.77.25,6.16S1219.28,1115.78,1219.28,1115.78Z" transform="translate(-0.01 -652.9)"/><rect class="cls-74" x="1217.36" y="1126.43" width="7.41" height="0.41" transform="translate(2150.89 1850.59) rotate(-166.73)"/><polygon class="cls-74" points="1203.91 478.98 1211.12 480.68 1211.21 480.28 1204 478.58 1203.91 478.98"/><polygon class="cls-74" points="1213.02 491.67 1220.23 493.37 1220.33 492.97 1213.11 491.27 1213.02 491.67"/><rect class="cls-74" x="1204.7" y="1152.25" width="7.41" height="0.41" transform="translate(2119.74 1898.78) rotate(-166.72)"/><polygon class="cls-74" points="1206.3 512.62 1213.52 514.32 1213.61 513.93 1206.39 512.23 1206.3 512.62"/><path class="cls-64" d="M1194.93,1141.73s17.63,3.82,17.36,6.74a4.57,4.57,0,0,1-2.13,3.82l6.55,4.87s2.51,5.66-4.4,6.75c0,0,2.9,5-3.89,5.3,0,0,.42,4.18-2.7,4.85s-14.37-2.25-14.37-2.25-2.53-1.47-.64-5.63c0,0-2.88-3.41-.65-7.14,0,0-2-3,.46-7,0,0-2.93-7.13,2.56-10.63C1193.08,1141.45,1194.19,1141.57,1194.93,1141.73Z" transform="translate(-0.01 -652.9)"/><path class="cls-75" d="M1438.26,1294.72c32,0,33.22,30.26,33.22,30.26l-61.19.1S1406.24,1294.78,1438.26,1294.72Z" transform="translate(-0.01 -652.9)"/><path class="cls-76" d="M1404,1309.93c14.87-1.45,16.61,15.13,16.61,15.13l-32,.06S1389.11,1311.39,1404,1309.93Z" transform="translate(-0.01 -652.9)"/><path class="cls-77" d="M1388,1310c14.87-1.45,16.61,15.13,16.61,15.13l-32,.05S1373.09,1311.42,1388,1310Z" transform="translate(-0.01 -652.9)"/><path class="cls-78" d="M1310.73,1298.37c-10.91-26.86,32.55-31.51,35.44-13.79s32.67,40.55,32.67,40.55l-52,10.39S1321.65,1325.23,1310.73,1298.37Z" transform="translate(-0.01 -652.9)"/><path class="cls-79" d="M1331.55,1273.26c17.14-.81,26.07,17.57,26.07,17.57s-25.47-11.5-27.18-5.92-5.39,21.73-5.39,21.73-4.34-24.94-5.51-21-14,10.49-14,10.49c-.88-15,13.94-21,13.94-21S1314.41,1274.07,1331.55,1273.26Z" transform="translate(-0.01 -652.9)"/><path class="cls-80" d="M1362.56,1413.64l57.38-.1c70.23-.12,58.83-100.27,58.83-100.27l-175.37.3S1292.33,1413.76,1362.56,1413.64Z" transform="translate(-0.01 -652.9)"/><path class="cls-81" d="M1362.56,1413.64l57.38-.1c70.23-.12,58.83-100.27,58.83-100.27l-63.5.11S1420.91,1413.54,1362.56,1413.64Z" transform="translate(-0.01 -652.9)"/><path class="cls-68" d="M681.7,755.94l0,0A151.08,151.08,0,0,0,699,784.47c22.53,28.8,74.94,29.43,75.58-49.75.12-15-1.78-27.15-4.8-37-10.79-35.12-36-40.93-36-40.93-18.63-1-51.22,3.67-62,27.94C664.09,702,669.72,730.52,681.7,755.94Z" transform="translate(-0.01 -652.9)"/><path class="cls-69" d="M681.7,755.94l0,0s2.69.72,12.33-18.85c1.93-3.92,3.43-1.12,4.27-2.85l15.4-6s-15.29-25.48,4.65-32.59c20.32-7.25,51.45,2.07,51.45,2.07,2.19-63.48-36-40.93-36-40.93-18.63-1-51.22,3.67-62,27.94C664.09,702,669.72,730.52,681.7,755.94Z" transform="translate(-0.01 -652.9)"/><path class="cls-68" d="M701.44,722.42c-1.16-5.29-11.62-9.83-16,1.55s10.46,23.42,14.37,20.92S703.35,731.18,701.44,722.42Z" transform="translate(-0.01 -652.9)"/><path class="cls-59" d="M484.53,919.45l-40.61-69.74s21.17-8.13,28.14-10.53,23.67-26.57,41.77-38.18c0,0-69.11-11.42-77.27-14.89l7.21-43.47s55.63,17.9,86,15.38,57.6,6.56,55.65,29.61-63.11,81.94-75.9,94.68C509.53,882.31,493.5,898.15,484.53,919.45Z" transform="translate(-0.01 -652.9)"/><path class="cls-82" d="M589,771.77a68.19,68.19,0,0,1-.73,10.14A71,71,0,0,1,581.2,804a79.14,79.14,0,0,1-7.29,11.64h0c-17.91,23.79-50,39.68-86.65,39.74-37.15.06-69.7-16.16-87.54-40.44a76,76,0,0,1-10-18.3,69.94,69.94,0,0,1-4.33-19.36c-.13-1.7-.19-3.42-.2-5.16a70.48,70.48,0,0,1,.5-8.38A68.8,68.8,0,0,1,388.12,752,73.15,73.15,0,0,1,395,736.17c16.34-28.12,51.34-47.57,91.92-47.64,39.67-.06,74.08,18.43,91,45.48a74.49,74.49,0,0,1,5.76,11.15,70,70,0,0,1,5,19.74A65,65,0,0,1,589,771.77Z" transform="translate(-0.01 -652.9)"/><path class="cls-83" d="M583.68,745.16A64.78,64.78,0,0,1,565,744c-15.2-3.4-20.11-4.14-38.72-4.23s-28.44-2.77-39.21.07-16.65,4.67-31.84,5.74-25-4.44-41.17.07c-11.47,3.21-21.23,5.39-25.91,6.38A73.15,73.15,0,0,1,395,736.17c9.82-4.44,26.22-10.9,34.16-8.6C441,731,450.27,725.48,466,723.79s35.76-3.29,44.59-.07,32.34-.75,45.09,4.61c5.87,2.48,14.45,4.17,22.29,5.68A74.49,74.49,0,0,1,583.68,745.16Z" transform="translate(-0.01 -652.9)"/><path class="cls-83" d="M589,771.77a68.19,68.19,0,0,1-.73,10.14c-7.09-.23-14.31-.36-19.83-.18-15.19.51-26,3.47-33.31,3.48s-27-3.87-34.81-4.35-29.88.54-38.7.55l-32.35.06c-12.74,0-27.93,1-27.93,1s-8.66-2.76-16-5.22c-.13-1.7-.19-3.42-.2-5.16a70.48,70.48,0,0,1,.5-8.38c8,0,21.4.51,34.27.1,16.67-.51,26,.46,42.64-.07s34.79-4.95,50-.08,24,8.56,32.86,8.16c6.45-.29,28.05-6.12,43.24-7A65,65,0,0,1,589,771.77Z" transform="translate(-0.01 -652.9)"/><path class="cls-83" d="M581.2,804a79.14,79.14,0,0,1-7.29,11.64h0c-21,3.84-31.33,6.8-42.6,11.23s-32.55,6.44-35.87,6.44-42-1.4-42-1.4a128.84,128.84,0,0,0-21.58-7.31c-7.67-1.74-22-5.18-32.11-9.66a76,76,0,0,1-10-18.3c17.45,6.24,56.07,16.56,62.67,16.16,8.33-.51,29.4,1.91,47.55,1.88s29.88-2,39.18-4.48,5.41-8.52,23.51-6.9C569,803.87,575.51,804,581.2,804Z" transform="translate(-0.01 -652.9)"/><path class="cls-84" d="M378.11,772.89c5.5,14.34,1.15,29.34-9.71,33.51s-24.13-4.07-29.64-18.4-1.15-29.34,9.71-33.51S372.61,758.56,378.11,772.89Z" transform="translate(-0.01 -652.9)"/><path class="cls-85" d="M446.81,1759.62c10.26,3.06,13.37,20.5,22.1,25.61s51.31,8.64,52.83-4.7-17.91-25.26-26.64-31.92-31-30.39-35-39.1c0,0-2.35,5.18-10.48,4.53-10.53-.83-13-3.25-13-3.25-1.67,10.51-3.19,17.66-4.22,21.67C428.83,1746.31,436.54,1756.56,446.81,1759.62Z" transform="translate(-0.01 -652.9)"/><path class="cls-85" d="M294.31,1763.16c10.27,3.07,13.37,20.5,22.1,25.62s51.32,8.63,52.83-4.71-17.9-25.26-26.63-31.91-31-30.39-35-39.11c0,0-2.34,5.19-10.47,4.54-10.54-.84-13-3.25-13-3.25-1.66,10.5-3.19,17.65-4.22,21.66C276.34,1749.86,284.05,1760.1,294.31,1763.16Z" transform="translate(-0.01 -652.9)"/><path class="cls-67" d="M325.53,1094.09s-29,37.84-36.81,82.69-7.29,193.44-7.59,215.6-5.05,73.35-4.36,120.95c.61,41.94-1.47,213-1.47,213l47.87-.83s22.86-176.67,25.4-194.2,10.88-82.6,11.9-89.82,55-202.36,54.92-234.69S395.53,1041.23,325.53,1094.09Z" transform="translate(-0.01 -652.9)"/><path class="cls-67" d="M470.6,1110.35c1.87,10.3,35.63,189,38.2,212.05,2.88,25.72,8.15,56.73,7.05,67.39-2.54,24.75-4.67,49.07-4.67,49.07L475.9,1721.47l-47.61-.82s-7-160.54-6.08-194.64,14.14-93.41,10.49-108.29-57.29-183.63-57.29-183.63S329.56,1042.67,470.6,1110.35Z" transform="translate(-0.01 -652.9)"/><path class="cls-59" d="M468.29,1092.08c1.8,12.24,9.81,58.42,9.81,58.42-80.79,26.14-177-14-177-14,1.6-8.87,23.94-71.25,27.15-77.7s8-24.65,3.15-47.09c-1.29-5.94-5.36-18.7-12.42-35.31-3.1-7.28-5.32-12.59-8.6-20.6h0c-14-34.07-27.73-70.88-25.17-77.56,4.55-11.83,26.85-17.24,37.6-19.15s49.43-16.47,49.43-16.47l41.25-.07s48.8,7.85,53.5,12.34c9.5,9.07,17.57,57.15,17.57,57.15,11.87,33.31-3.55,69.5-6.15,78-4.9,16-8.17,36.54-9.36,47S467.37,1085.84,468.29,1092.08Z" transform="translate(-0.01 -652.9)"/><path class="cls-53" d="M385.62,671.43c14.78-1.64,50.54,8.51,55.21,63.07s-8.47,82-20.55,87.92-45.7-3.42-60.79-29.73S325.74,705.13,347,687.89,385.62,671.43,385.62,671.43Z" transform="translate(-0.01 -652.9)"/><path class="cls-84" d="M424.35,724.91s13,9.26,17.42,21.54c0,0,9.69-69-49.14-74.54C347.86,667.67,333,704.38,336.87,728S352,778.81,352,778.81s4.22-13.92,12.19-14.32S423,734,424.35,724.91Z" transform="translate(-0.01 -652.9)"/><path class="cls-53" d="M395.64,871.91c-25.26,0-31-26.44-31-26.44s5.45-35.77-8.74-59.58,57.41,38.24,57.41,38.24-.06,5.82.32,12.8c.39,7.44,1.51,14.33,3.46,18.7C417.08,855.63,420.9,871.87,395.64,871.91Z" transform="translate(-0.01 -652.9)"/><path class="cls-53" d="M369.9,750.64c-2.71-2.62-15.33-6.94-15.58,9.16s18.06,27.92,19.65,16.63S374.45,755,369.9,750.64Z" transform="translate(-0.01 -652.9)"/><path class="cls-61" d="M413.62,836.93c-.88-.25-1.84-.54-2.89-.89-23.53-7.88-34.82-25-34.82-25,21.54,14.9,37.5,13,37.5,13S413.24,830,413.62,836.93Z" transform="translate(-0.01 -652.9)"/><path class="cls-67" d="M320.86,981s38.41-22,54.08-47.91l91-6.31L485.47,967s-14.1,63.31-7.37,183.53c3.28,58.56-177-14-177-14S329,1048.54,320.86,981Z" transform="translate(-0.01 -652.9)"/><path class="cls-67" d="M374.94,933.11s-18.14-56.17-42.69-76.48c0,0,6.47-6.58,12.94-4.25,0,0,18.87,10.29,49.76,79.35S374.94,933.11,374.94,933.11Z" transform="translate(-0.01 -652.9)"/><path class="cls-67" d="M466,926.8s-6.78-52.59-16.41-77.4l-7.71-1.81s11.64,60.22,10.47,80.16S466,926.8,466,926.8Z" transform="translate(-0.01 -652.9)"/><path class="cls-86" d="M344.71,757.32s47.32-20.25,97.61-16.51c0,0,8-85.42-72.76-68.31C369.56,672.5,312.48,683.93,344.71,757.32Z" transform="translate(-0.01 -652.9)"/><path class="cls-86" d="M382.91,745.71s41.63-21.7,83.73-17.46-24.32,12.56-24.32,12.56S405.92,741.85,382.91,745.71Z" transform="translate(-0.01 -652.9)"/><path class="cls-53" d="M506.14,690.37a38.29,38.29,0,0,1,34.39-1.65c21.48,9.45,24.24,21.55,21.15,25.27S505.35,701.87,506.14,690.37Z" transform="translate(-0.01 -652.9)"/><path class="cls-53" d="M280.76,1138.86s4,2.47,7.82,2c6.63-.73,13.32-8.25,21-2.84s-3.58,33-8.45,36.57-17.51-.67-32.13-13.81S280.76,1138.86,280.76,1138.86Z" transform="translate(-0.01 -652.9)"/><path class="cls-53" d="M306.74,1136.59a293,293,0,0,1,29.08,8c13.27,4.44,27.82,12,28,14.8.17,3.17-14-2.57-27.44-6.14-12.39-3.28-10.52-.67-10.52-.67s-.49-.77,12.29,5.28c13.75,6.52,27.15,14.51,26.93,17.89-.11,1.65-1.07,2.24-6.47.64,2.9,1.55,2.86,2.52,2.3,3.71-2.93,6.2-24.69-.4-33.34-3,6.63,2.06,11.26,4.23,6.84,6.92-5.06,3.08-35.39-7.57-46.64-10.4C275.47,1170.49,306.74,1136.59,306.74,1136.59Z" transform="translate(-0.01 -652.9)"/><path class="cls-59" d="M337.33,867.22s-41-10.59-59.66,12.47c-24.28,30-29.43,39.73-36.51,55-6.69,14.47-28.79,52.82-31,56.78s-39.52,48.18-34.76,69,92,104.36,90.13,108.1,24.72-28.32,24.72-28.32-29.65-41.79-34.33-51c-7.6-14.94-27.22-34.47-18.09-47.44,10.72-15.23,44.82-67.24,51.26-74.42S359.21,885.41,337.33,867.22Z" transform="translate(-0.01 -652.9)"/></svg>